<mxfile host="app.diagrams.net" agent="Mozilla/5.0 (Windows NT 10.0; Win64; x64) AppleWebKit/537.36 (KHTML, like Gecko) Chrome/135.0.0.0 Safari/537.36" version="26.2.10">
  <diagram id="C5RBs43oDa-KdzZeNtuy" name="Page-1">
    <mxGraphModel dx="1044" dy="562" grid="1" gridSize="10" guides="1" tooltips="1" connect="1" arrows="1" fold="1" page="1" pageScale="1" pageWidth="827" pageHeight="1169" math="0" shadow="0">
      <root>
        <mxCell id="WIyWlLk6GJQsqaUBKTNV-0" />
        <mxCell id="WIyWlLk6GJQsqaUBKTNV-1" parent="WIyWlLk6GJQsqaUBKTNV-0" />
        <mxCell id="9Kl83VQZWumYUlhoefo_-35" value="" style="edgeStyle=orthogonalEdgeStyle;rounded=0;orthogonalLoop=1;jettySize=auto;html=1;" edge="1" parent="WIyWlLk6GJQsqaUBKTNV-1" source="9Kl83VQZWumYUlhoefo_-17" target="9Kl83VQZWumYUlhoefo_-34">
          <mxGeometry relative="1" as="geometry" />
        </mxCell>
        <mxCell id="9Kl83VQZWumYUlhoefo_-17" value="INICIO" style="strokeWidth=2;html=1;shape=mxgraph.flowchart.start_1;whiteSpace=wrap;fillColor=#d5e8d4;strokeColor=#82b366;" vertex="1" parent="WIyWlLk6GJQsqaUBKTNV-1">
          <mxGeometry x="370" y="270" width="100" height="60" as="geometry" />
        </mxCell>
        <mxCell id="9Kl83VQZWumYUlhoefo_-18" value="FIM" style="strokeWidth=2;html=1;shape=mxgraph.flowchart.start_1;whiteSpace=wrap;fillColor=#d5e8d4;strokeColor=#82b366;" vertex="1" parent="WIyWlLk6GJQsqaUBKTNV-1">
          <mxGeometry x="369.75" y="1180" width="100" height="60" as="geometry" />
        </mxCell>
        <mxCell id="9Kl83VQZWumYUlhoefo_-19" value="" style="edgeStyle=orthogonalEdgeStyle;rounded=0;orthogonalLoop=1;jettySize=auto;html=1;" edge="1" parent="WIyWlLk6GJQsqaUBKTNV-1" source="9Kl83VQZWumYUlhoefo_-20">
          <mxGeometry relative="1" as="geometry">
            <mxPoint x="419.79999999999995" y="530" as="targetPoint" />
          </mxGeometry>
        </mxCell>
        <mxCell id="9Kl83VQZWumYUlhoefo_-20" value="&lt;div&gt;&lt;br&gt;&lt;/div&gt;&lt;div&gt;TEMPERATURA&lt;/div&gt;" style="html=1;strokeWidth=2;shape=manualInput;whiteSpace=wrap;rounded=1;size=26;arcSize=11;fillColor=#dae8fc;strokeColor=#6c8ebf;" vertex="1" parent="WIyWlLk6GJQsqaUBKTNV-1">
          <mxGeometry x="369.75" y="440" width="100" height="60" as="geometry" />
        </mxCell>
        <mxCell id="9Kl83VQZWumYUlhoefo_-28" value="" style="edgeStyle=orthogonalEdgeStyle;rounded=0;orthogonalLoop=1;jettySize=auto;html=1;" edge="1" parent="WIyWlLk6GJQsqaUBKTNV-1" source="9Kl83VQZWumYUlhoefo_-29" target="9Kl83VQZWumYUlhoefo_-18">
          <mxGeometry relative="1" as="geometry" />
        </mxCell>
        <mxCell id="9Kl83VQZWumYUlhoefo_-29" value="" style="verticalLabelPosition=bottom;verticalAlign=top;html=1;shape=mxgraph.flowchart.on-page_reference;fillColor=#f5f5f5;gradientColor=#b3b3b3;strokeColor=#666666;" vertex="1" parent="WIyWlLk6GJQsqaUBKTNV-1">
          <mxGeometry x="404.75" y="1100" width="30" height="30" as="geometry" />
        </mxCell>
        <mxCell id="9Kl83VQZWumYUlhoefo_-37" value="" style="edgeStyle=orthogonalEdgeStyle;rounded=0;orthogonalLoop=1;jettySize=auto;html=1;" edge="1" parent="WIyWlLk6GJQsqaUBKTNV-1" source="9Kl83VQZWumYUlhoefo_-34" target="9Kl83VQZWumYUlhoefo_-20">
          <mxGeometry relative="1" as="geometry" />
        </mxCell>
        <mxCell id="9Kl83VQZWumYUlhoefo_-34" value="TEMPERATURA = 0" style="rounded=1;whiteSpace=wrap;html=1;absoluteArcSize=1;arcSize=14;strokeWidth=2;fillColor=#f5f5f5;fontColor=#333333;strokeColor=#666666;" vertex="1" parent="WIyWlLk6GJQsqaUBKTNV-1">
          <mxGeometry x="345" y="360" width="150" height="40" as="geometry" />
        </mxCell>
        <mxCell id="9Kl83VQZWumYUlhoefo_-40" value="" style="edgeStyle=orthogonalEdgeStyle;rounded=0;orthogonalLoop=1;jettySize=auto;html=1;" edge="1" parent="WIyWlLk6GJQsqaUBKTNV-1" source="9Kl83VQZWumYUlhoefo_-38" target="9Kl83VQZWumYUlhoefo_-39">
          <mxGeometry relative="1" as="geometry" />
        </mxCell>
        <mxCell id="9Kl83VQZWumYUlhoefo_-38" value="ESCOLHA ( TEMPERATURA )" style="rounded=1;whiteSpace=wrap;html=1;absoluteArcSize=1;arcSize=14;strokeWidth=2;fillColor=#f5f5f5;fontColor=#333333;strokeColor=#666666;" vertex="1" parent="WIyWlLk6GJQsqaUBKTNV-1">
          <mxGeometry x="307.5" y="530" width="225" height="40" as="geometry" />
        </mxCell>
        <mxCell id="9Kl83VQZWumYUlhoefo_-47" style="edgeStyle=orthogonalEdgeStyle;rounded=0;orthogonalLoop=1;jettySize=auto;html=1;exitX=0.5;exitY=1;exitDx=0;exitDy=0;entryX=0.5;entryY=0;entryDx=0;entryDy=0;" edge="1" parent="WIyWlLk6GJQsqaUBKTNV-1" source="9Kl83VQZWumYUlhoefo_-39" target="9Kl83VQZWumYUlhoefo_-41">
          <mxGeometry relative="1" as="geometry" />
        </mxCell>
        <mxCell id="9Kl83VQZWumYUlhoefo_-52" value="" style="edgeStyle=orthogonalEdgeStyle;rounded=0;orthogonalLoop=1;jettySize=auto;html=1;" edge="1" parent="WIyWlLk6GJQsqaUBKTNV-1" source="9Kl83VQZWumYUlhoefo_-39">
          <mxGeometry relative="1" as="geometry">
            <mxPoint x="539.75" y="670" as="targetPoint" />
          </mxGeometry>
        </mxCell>
        <mxCell id="9Kl83VQZWumYUlhoefo_-74" value="S" style="edgeLabel;html=1;align=center;verticalAlign=middle;resizable=0;points=[];" vertex="1" connectable="0" parent="9Kl83VQZWumYUlhoefo_-52">
          <mxGeometry x="0.0999" y="-2" relative="1" as="geometry">
            <mxPoint as="offset" />
          </mxGeometry>
        </mxCell>
        <mxCell id="9Kl83VQZWumYUlhoefo_-39" value="CASO&amp;nbsp;&lt;div&gt;&amp;lt; 36,5&lt;/div&gt;" style="rhombus;whiteSpace=wrap;html=1;fillColor=#ffe6cc;strokeColor=#d79b00;rounded=1;absoluteArcSize=1;arcSize=14;strokeWidth=2;" vertex="1" parent="WIyWlLk6GJQsqaUBKTNV-1">
          <mxGeometry x="369.75" y="630" width="100" height="80" as="geometry" />
        </mxCell>
        <mxCell id="9Kl83VQZWumYUlhoefo_-45" style="edgeStyle=orthogonalEdgeStyle;rounded=0;orthogonalLoop=1;jettySize=auto;html=1;exitX=0.5;exitY=1;exitDx=0;exitDy=0;entryX=0.5;entryY=0;entryDx=0;entryDy=0;" edge="1" parent="WIyWlLk6GJQsqaUBKTNV-1" source="9Kl83VQZWumYUlhoefo_-41" target="9Kl83VQZWumYUlhoefo_-43">
          <mxGeometry relative="1" as="geometry" />
        </mxCell>
        <mxCell id="9Kl83VQZWumYUlhoefo_-41" value="CASO&amp;nbsp;&lt;div&gt;&amp;gt;= 36,5 E &amp;lt; 37&lt;/div&gt;" style="rhombus;whiteSpace=wrap;html=1;fillColor=#ffe6cc;strokeColor=#d79b00;rounded=1;absoluteArcSize=1;arcSize=14;strokeWidth=2;" vertex="1" parent="WIyWlLk6GJQsqaUBKTNV-1">
          <mxGeometry x="369.75" y="730" width="100" height="80" as="geometry" />
        </mxCell>
        <mxCell id="9Kl83VQZWumYUlhoefo_-42" value="CASO&amp;nbsp;&lt;div&gt;&amp;gt;= 38&lt;/div&gt;" style="rhombus;whiteSpace=wrap;html=1;fillColor=#ffe6cc;strokeColor=#d79b00;rounded=1;absoluteArcSize=1;arcSize=14;strokeWidth=2;" vertex="1" parent="WIyWlLk6GJQsqaUBKTNV-1">
          <mxGeometry x="370" y="930" width="100" height="80" as="geometry" />
        </mxCell>
        <mxCell id="9Kl83VQZWumYUlhoefo_-46" style="edgeStyle=orthogonalEdgeStyle;rounded=0;orthogonalLoop=1;jettySize=auto;html=1;exitX=0.5;exitY=1;exitDx=0;exitDy=0;entryX=0.5;entryY=0;entryDx=0;entryDy=0;" edge="1" parent="WIyWlLk6GJQsqaUBKTNV-1" source="9Kl83VQZWumYUlhoefo_-43" target="9Kl83VQZWumYUlhoefo_-42">
          <mxGeometry relative="1" as="geometry" />
        </mxCell>
        <mxCell id="9Kl83VQZWumYUlhoefo_-43" value="CASO&lt;div&gt;&amp;gt;= 37 E &amp;lt; 38&lt;/div&gt;" style="rhombus;whiteSpace=wrap;html=1;fillColor=#ffe6cc;strokeColor=#d79b00;rounded=1;absoluteArcSize=1;arcSize=14;strokeWidth=2;" vertex="1" parent="WIyWlLk6GJQsqaUBKTNV-1">
          <mxGeometry x="369.75" y="830" width="100" height="80" as="geometry" />
        </mxCell>
        <mxCell id="9Kl83VQZWumYUlhoefo_-48" value="N" style="text;html=1;align=center;verticalAlign=middle;resizable=0;points=[];autosize=1;strokeColor=none;fillColor=none;" vertex="1" parent="WIyWlLk6GJQsqaUBKTNV-1">
          <mxGeometry x="415" y="698" width="30" height="30" as="geometry" />
        </mxCell>
        <mxCell id="9Kl83VQZWumYUlhoefo_-49" value="N" style="text;html=1;align=center;verticalAlign=middle;resizable=0;points=[];autosize=1;strokeColor=none;fillColor=none;" vertex="1" parent="WIyWlLk6GJQsqaUBKTNV-1">
          <mxGeometry x="415" y="798" width="30" height="30" as="geometry" />
        </mxCell>
        <mxCell id="9Kl83VQZWumYUlhoefo_-50" value="N" style="text;html=1;align=center;verticalAlign=middle;resizable=0;points=[];autosize=1;strokeColor=none;fillColor=none;" vertex="1" parent="WIyWlLk6GJQsqaUBKTNV-1">
          <mxGeometry x="415" y="908" width="30" height="30" as="geometry" />
        </mxCell>
        <mxCell id="9Kl83VQZWumYUlhoefo_-64" value="" style="edgeStyle=orthogonalEdgeStyle;rounded=0;orthogonalLoop=1;jettySize=auto;html=1;" edge="1" parent="WIyWlLk6GJQsqaUBKTNV-1" source="9Kl83VQZWumYUlhoefo_-53" target="9Kl83VQZWumYUlhoefo_-60">
          <mxGeometry relative="1" as="geometry" />
        </mxCell>
        <mxCell id="9Kl83VQZWumYUlhoefo_-53" value="HIPOTERMIA" style="strokeWidth=2;html=1;shape=mxgraph.flowchart.display;whiteSpace=wrap;fillColor=#e1d5e7;strokeColor=#9673a6;" vertex="1" parent="WIyWlLk6GJQsqaUBKTNV-1">
          <mxGeometry x="540" y="640" width="100" height="60" as="geometry" />
        </mxCell>
        <mxCell id="9Kl83VQZWumYUlhoefo_-54" value="" style="edgeStyle=orthogonalEdgeStyle;rounded=0;orthogonalLoop=1;jettySize=auto;html=1;" edge="1" parent="WIyWlLk6GJQsqaUBKTNV-1">
          <mxGeometry relative="1" as="geometry">
            <mxPoint x="470" y="770" as="sourcePoint" />
            <mxPoint x="539.75" y="770" as="targetPoint" />
          </mxGeometry>
        </mxCell>
        <mxCell id="9Kl83VQZWumYUlhoefo_-75" value="S" style="edgeLabel;html=1;align=center;verticalAlign=middle;resizable=0;points=[];" vertex="1" connectable="0" parent="9Kl83VQZWumYUlhoefo_-54">
          <mxGeometry x="0.0036" y="3" relative="1" as="geometry">
            <mxPoint as="offset" />
          </mxGeometry>
        </mxCell>
        <mxCell id="9Kl83VQZWumYUlhoefo_-68" value="" style="edgeStyle=orthogonalEdgeStyle;rounded=0;orthogonalLoop=1;jettySize=auto;html=1;" edge="1" parent="WIyWlLk6GJQsqaUBKTNV-1" source="9Kl83VQZWumYUlhoefo_-55" target="9Kl83VQZWumYUlhoefo_-61">
          <mxGeometry relative="1" as="geometry" />
        </mxCell>
        <mxCell id="9Kl83VQZWumYUlhoefo_-55" value="NORMAL" style="strokeWidth=2;html=1;shape=mxgraph.flowchart.display;whiteSpace=wrap;fillColor=#e1d5e7;strokeColor=#9673a6;" vertex="1" parent="WIyWlLk6GJQsqaUBKTNV-1">
          <mxGeometry x="540" y="740" width="100" height="60" as="geometry" />
        </mxCell>
        <mxCell id="9Kl83VQZWumYUlhoefo_-56" value="" style="edgeStyle=orthogonalEdgeStyle;rounded=0;orthogonalLoop=1;jettySize=auto;html=1;" edge="1" parent="WIyWlLk6GJQsqaUBKTNV-1">
          <mxGeometry relative="1" as="geometry">
            <mxPoint x="469.75" y="870" as="sourcePoint" />
            <mxPoint x="539.5" y="870" as="targetPoint" />
          </mxGeometry>
        </mxCell>
        <mxCell id="9Kl83VQZWumYUlhoefo_-76" value="S" style="edgeLabel;html=1;align=center;verticalAlign=middle;resizable=0;points=[];" vertex="1" connectable="0" parent="9Kl83VQZWumYUlhoefo_-56">
          <mxGeometry x="0.1254" y="3" relative="1" as="geometry">
            <mxPoint as="offset" />
          </mxGeometry>
        </mxCell>
        <mxCell id="9Kl83VQZWumYUlhoefo_-69" value="" style="edgeStyle=orthogonalEdgeStyle;rounded=0;orthogonalLoop=1;jettySize=auto;html=1;" edge="1" parent="WIyWlLk6GJQsqaUBKTNV-1" source="9Kl83VQZWumYUlhoefo_-57" target="9Kl83VQZWumYUlhoefo_-62">
          <mxGeometry relative="1" as="geometry" />
        </mxCell>
        <mxCell id="9Kl83VQZWumYUlhoefo_-57" value="ESTADO FEBRIL" style="strokeWidth=2;html=1;shape=mxgraph.flowchart.display;whiteSpace=wrap;fillColor=#e1d5e7;strokeColor=#9673a6;" vertex="1" parent="WIyWlLk6GJQsqaUBKTNV-1">
          <mxGeometry x="539.75" y="840" width="100" height="60" as="geometry" />
        </mxCell>
        <mxCell id="9Kl83VQZWumYUlhoefo_-58" value="" style="edgeStyle=orthogonalEdgeStyle;rounded=0;orthogonalLoop=1;jettySize=auto;html=1;" edge="1" parent="WIyWlLk6GJQsqaUBKTNV-1">
          <mxGeometry relative="1" as="geometry">
            <mxPoint x="469.75" y="970" as="sourcePoint" />
            <mxPoint x="539.5" y="970" as="targetPoint" />
          </mxGeometry>
        </mxCell>
        <mxCell id="9Kl83VQZWumYUlhoefo_-77" value="S" style="edgeLabel;html=1;align=center;verticalAlign=middle;resizable=0;points=[];" vertex="1" connectable="0" parent="9Kl83VQZWumYUlhoefo_-58">
          <mxGeometry x="0.0108" y="-1" relative="1" as="geometry">
            <mxPoint as="offset" />
          </mxGeometry>
        </mxCell>
        <mxCell id="9Kl83VQZWumYUlhoefo_-70" value="" style="edgeStyle=orthogonalEdgeStyle;rounded=0;orthogonalLoop=1;jettySize=auto;html=1;" edge="1" parent="WIyWlLk6GJQsqaUBKTNV-1" source="9Kl83VQZWumYUlhoefo_-59" target="9Kl83VQZWumYUlhoefo_-63">
          <mxGeometry relative="1" as="geometry" />
        </mxCell>
        <mxCell id="9Kl83VQZWumYUlhoefo_-59" value="FEBRE" style="strokeWidth=2;html=1;shape=mxgraph.flowchart.display;whiteSpace=wrap;fillColor=#e1d5e7;strokeColor=#9673a6;" vertex="1" parent="WIyWlLk6GJQsqaUBKTNV-1">
          <mxGeometry x="539.75" y="940" width="100" height="60" as="geometry" />
        </mxCell>
        <mxCell id="9Kl83VQZWumYUlhoefo_-65" value="" style="edgeStyle=orthogonalEdgeStyle;rounded=0;orthogonalLoop=1;jettySize=auto;html=1;" edge="1" parent="WIyWlLk6GJQsqaUBKTNV-1" source="9Kl83VQZWumYUlhoefo_-60" target="9Kl83VQZWumYUlhoefo_-61">
          <mxGeometry relative="1" as="geometry" />
        </mxCell>
        <mxCell id="9Kl83VQZWumYUlhoefo_-60" value="" style="verticalLabelPosition=bottom;verticalAlign=top;html=1;shape=mxgraph.flowchart.on-page_reference;fillColor=#f5f5f5;gradientColor=#b3b3b3;strokeColor=#666666;" vertex="1" parent="WIyWlLk6GJQsqaUBKTNV-1">
          <mxGeometry x="720" y="655" width="30" height="30" as="geometry" />
        </mxCell>
        <mxCell id="9Kl83VQZWumYUlhoefo_-66" value="" style="edgeStyle=orthogonalEdgeStyle;rounded=0;orthogonalLoop=1;jettySize=auto;html=1;" edge="1" parent="WIyWlLk6GJQsqaUBKTNV-1" source="9Kl83VQZWumYUlhoefo_-61" target="9Kl83VQZWumYUlhoefo_-62">
          <mxGeometry relative="1" as="geometry" />
        </mxCell>
        <mxCell id="9Kl83VQZWumYUlhoefo_-61" value="" style="verticalLabelPosition=bottom;verticalAlign=top;html=1;shape=mxgraph.flowchart.on-page_reference;fillColor=#f5f5f5;gradientColor=#b3b3b3;strokeColor=#666666;" vertex="1" parent="WIyWlLk6GJQsqaUBKTNV-1">
          <mxGeometry x="720" y="755" width="30" height="30" as="geometry" />
        </mxCell>
        <mxCell id="9Kl83VQZWumYUlhoefo_-67" value="" style="edgeStyle=orthogonalEdgeStyle;rounded=0;orthogonalLoop=1;jettySize=auto;html=1;" edge="1" parent="WIyWlLk6GJQsqaUBKTNV-1" source="9Kl83VQZWumYUlhoefo_-62" target="9Kl83VQZWumYUlhoefo_-63">
          <mxGeometry relative="1" as="geometry" />
        </mxCell>
        <mxCell id="9Kl83VQZWumYUlhoefo_-62" value="" style="verticalLabelPosition=bottom;verticalAlign=top;html=1;shape=mxgraph.flowchart.on-page_reference;fillColor=#f5f5f5;gradientColor=#b3b3b3;strokeColor=#666666;" vertex="1" parent="WIyWlLk6GJQsqaUBKTNV-1">
          <mxGeometry x="720" y="855" width="30" height="30" as="geometry" />
        </mxCell>
        <mxCell id="9Kl83VQZWumYUlhoefo_-63" value="" style="verticalLabelPosition=bottom;verticalAlign=top;html=1;shape=mxgraph.flowchart.on-page_reference;fillColor=#f5f5f5;gradientColor=#b3b3b3;strokeColor=#666666;" vertex="1" parent="WIyWlLk6GJQsqaUBKTNV-1">
          <mxGeometry x="720" y="955" width="30" height="30" as="geometry" />
        </mxCell>
        <mxCell id="9Kl83VQZWumYUlhoefo_-71" style="edgeStyle=orthogonalEdgeStyle;rounded=0;orthogonalLoop=1;jettySize=auto;html=1;exitX=0.5;exitY=1;exitDx=0;exitDy=0;exitPerimeter=0;entryX=0.5;entryY=0;entryDx=0;entryDy=0;entryPerimeter=0;" edge="1" parent="WIyWlLk6GJQsqaUBKTNV-1" source="9Kl83VQZWumYUlhoefo_-63" target="9Kl83VQZWumYUlhoefo_-29">
          <mxGeometry relative="1" as="geometry" />
        </mxCell>
      </root>
    </mxGraphModel>
  </diagram>
</mxfile>
